<?xml version="1.0" encoding="UTF-8" standalone="no"?>
<svg width="45px" height="45px" viewBox="0 0 45 45" version="1.1" xmlns="http://www.w3.org/2000/svg" xmlns:xlink="http://www.w3.org/1999/xlink">
    <!-- Generator: Sketch 46.2 (44496) - http://www.bohemiancoding.com/sketch -->
    <title>idea-heart</title>
    <desc>Created with Sketch.</desc>
    <defs></defs>
    <g id="web" stroke="none" stroke-width="1" fill="none" fill-rule="evenodd">
        <g id="品牌理念" transform="translate(-490.000000, -1586.000000)" fill-rule="nonzero" fill="#A6A6A6">
            <g id="heart-icon" transform="translate(490.000000, 1586.000000)">
                <g id="001-like" transform="translate(0.000000, 2.000000)">
                    <path d="M7.34572266,13.4242927 L1.46917969,13.4242927 C0.661289062,13.4242927 0,14.0633415 0,14.8511829 L0,40.5361463 C0,41.3236463 0.658388672,41.9628659 1.46917969,41.9628659 L7.34572266,41.9628659 C8.15651367,41.9628659 8.81490234,41.323561 8.81490234,40.5361463 L8.81490234,14.8511829 C8.81490234,14.0633415 8.15352539,13.4242927 7.34572266,13.4242927 Z" id="Shape"></path>
                    <path d="M41.3319727,13.4242927 C41.0953711,13.3853659 30.0170215,13.4242927 30.0170215,13.4242927 L31.5644238,9.324 C32.6321191,6.49207317 31.9408594,2.16803659 28.9783301,0.630768293 C28.0137305,0.130182927 26.6660156,-0.121219512 25.5794238,0.144439024 C24.9562793,0.296731707 24.4086328,0.697439024 24.082207,1.23430488 C23.7068262,1.8517561 23.7455859,2.5725 23.6119043,3.25713415 C23.2729102,4.99364634 22.4281055,6.64470732 21.1198535,7.88396341 C18.838916,10.0446585 11.7532617,16.2780732 11.7532617,16.2780732 L11.7532617,39.1091707 L36.2389746,39.1091707 C39.542959,39.1110488 41.7082324,35.5273902 40.0786523,32.7281585 C42.021123,31.5198049 42.6854883,28.974622 41.547832,27.0204268 C43.4903906,25.8120732 44.154668,23.2668902 43.0170117,21.3126951 C46.3686328,19.2278049 45.2481152,14.0676098 41.3319727,13.4242927 Z" id="Shape"></path>
                </g>
            </g>
        </g>
    </g>
</svg>