<?xml version="1.0" encoding="UTF-8" standalone="no"?>
<svg width="45px" height="45px" viewBox="0 0 45 45" version="1.1" xmlns="http://www.w3.org/2000/svg" xmlns:xlink="http://www.w3.org/1999/xlink">
    <!-- Generator: Sketch 46.2 (44496) - http://www.bohemiancoding.com/sketch -->
    <title>idea-lock</title>
    <desc>Created with Sketch.</desc>
    <defs></defs>
    <g id="web" stroke="none" stroke-width="1" fill="none" fill-rule="evenodd">
        <g id="品牌理念" transform="translate(-754.000000, -1585.000000)" fill-rule="nonzero" fill="#A6A6A6">
            <g id="lock-icon" transform="translate(754.000000, 1585.000000)">
                <g id="003-smiley" transform="translate(2.000000, 2.000000)">
                    <path d="M21,0 C9.402,0 0,9.402 0,21 C0,32.598 9.402,42 21,42 C32.598,42 42,32.598 42,21 C42,9.402 32.598,0 21,0 Z M28.0166769,13.5217846 C29.8009846,13.5217846 31.2474462,14.9682462 31.2474462,16.7525538 C31.2474462,18.5368615 29.8009846,19.9833231 28.0166769,19.9833231 C26.2323692,19.9833231 24.7859077,18.5368615 24.7859077,16.7525538 C24.7859077,14.9682462 26.2323692,13.5217846 28.0166769,13.5217846 Z M13.9833231,13.5217846 C15.7676308,13.5217846 17.2140923,14.9682462 17.2140923,16.7525538 C17.2140923,18.5368615 15.7676308,19.9833231 13.9833231,19.9833231 C12.1990154,19.9833231 10.7525538,18.5368615 10.7525538,16.7525538 C10.7525538,14.9682462 12.1990154,13.5217846 13.9833231,13.5217846 Z M21,34.1538462 C15.5150769,34.1538462 10.5534462,30.6919385 8.65366154,25.5392308 L11.2519385,24.5812615 C12.7523077,28.6505538 16.6697538,31.3846154 21,31.3846154 C25.3302462,31.3846154 29.2476923,28.6505538 30.7480615,24.5812615 L33.3463385,25.5392308 C31.4465538,30.6919385 26.4849231,34.1538462 21,34.1538462 Z" id="Shape"></path>
                </g>
            </g>
        </g>
    </g>
</svg>