<?xml version="1.0" encoding="UTF-8" standalone="no"?>
<svg width="45px" height="45px" viewBox="0 0 45 45" version="1.1" xmlns="http://www.w3.org/2000/svg" xmlns:xlink="http://www.w3.org/1999/xlink">
    <!-- Generator: Sketch 46.2 (44496) - http://www.bohemiancoding.com/sketch -->
    <title>idea-plus</title>
    <desc>Created with Sketch.</desc>
    <defs></defs>
    <g id="web" stroke="none" stroke-width="1" fill="none" fill-rule="evenodd">
        <g id="品牌理念" transform="translate(-1017.000000, -1585.000000)" fill-rule="nonzero" fill="#A6A6A6">
            <g id="plus-icon" transform="translate(1017.000000, 1585.000000)">
                <g id="002-time" transform="translate(0.000000, 1.000000)">
                    <path d="M43.9753125,17.8453333 C43.8225,17.5214667 43.49625,17.3142667 43.1353125,17.3142667 L40.39125,17.3142667 C38.6465625,7.88853333 30.3328125,0.723333333 20.368125,0.723333333 C9.1378125,0.723333333 0,9.82053333 0,21.0009333 C0,32.1813333 9.136875,41.2776 20.368125,41.2776 C27.6159375,41.2776 34.3753125,37.394 38.008125,31.1444 C38.52,30.2624 38.218125,29.1358667 37.33125,28.6253333 C36.44625,28.1148 35.31375,28.4153333 34.8028125,29.2973333 C31.8290625,34.4129333 26.2978125,37.5918667 20.368125,37.5918667 C11.1796875,37.5918667 3.703125,30.1494667 3.703125,21.0028 C3.703125,11.8542667 11.1796875,4.41186667 20.368125,4.41186667 C28.2825,4.41186667 34.9134375,9.93813333 36.6028125,17.3152 L33.8803125,17.3152 C33.519375,17.3152 33.1940625,17.5224 33.0403125,17.8462667 C32.8875,18.1701333 32.9371875,18.5518667 33.1678125,18.8272 L37.7971875,24.3572 C37.9734375,24.5672 38.233125,24.6885333 38.50875,24.6885333 C38.7834375,24.6885333 39.0440625,24.5662667 39.219375,24.3572 L43.84875,18.8272 C44.079375,18.5509333 44.128125,18.1692 43.9753125,17.8453333 Z" id="Shape"></path>
                    <path d="M20.368125,5.33213333 C19.3453125,5.33213333 18.5165625,6.1572 18.5165625,7.17546667 L18.5165625,18.3605333 C17.679375,18.9448 17.128125,19.908 17.128125,21.0018667 C17.128125,22.7808 18.5821875,24.2284 20.3690625,24.2284 C20.8584375,24.2284 21.3196875,24.1117333 21.7359375,23.9166667 L28.1765625,27.6173333 C28.4690625,27.7862667 28.7859375,27.8656 29.1009375,27.8656 C29.7403125,27.8656 30.3628125,27.5352 30.7059375,26.9434667 C31.216875,26.0633333 30.9140625,24.9349333 30.0271875,24.4262667 L23.58,20.72 C23.49375,19.7456 22.9846875,18.8944 22.2215625,18.3624 L22.2215625,7.17546667 C22.2196875,6.15813333 21.39,5.33213333 20.368125,5.33213333 Z M20.368125,22.3832 C19.6021875,22.3832 18.9796875,21.7625333 18.9796875,21.0018667 C18.9796875,20.2402667 19.603125,19.6196 20.368125,19.6196 C21.133125,19.6196 21.7565625,20.2402667 21.7565625,21.0018667 C21.7565625,21.7625333 21.133125,22.3832 20.368125,22.3832 Z" id="Shape"></path>
                </g>
            </g>
        </g>
    </g>
</svg>