<?xml version="1.0" encoding="UTF-8" standalone="no"?>
<svg width="45px" height="45px" viewBox="0 0 45 45" version="1.1" xmlns="http://www.w3.org/2000/svg" xmlns:xlink="http://www.w3.org/1999/xlink">
    <!-- Generator: Sketch 46.2 (44496) - http://www.bohemiancoding.com/sketch -->
    <title>idea-home</title>
    <desc>Created with Sketch.</desc>
    <defs></defs>
    <g id="web" stroke="none" stroke-width="1" fill="none" fill-rule="evenodd">
        <g id="品牌理念" transform="translate(-226.000000, -1586.000000)" fill-rule="nonzero" fill="#A6A6A6">
            <g id="home-icon" transform="translate(226.000000, 1586.000000)">
                <g id="004-target">
                    <path d="M29.5007669,18.3496933 L32.4363497,15.4141104 L35.6480061,12.202454 L38.3167178,9.53374233 L40.1940184,9.87423313 L44.9424847,5.12576687 L40.5989264,4.34355828 L39.8167178,0 L35.077454,4.74846626 L35.4179448,6.62576687 L32.7492331,9.29447853 C24.8719325,2.8803681 13.2216258,3.3404908 5.87806748,10.6748466 C-1.95322086,18.506135 -1.95322086,31.2423313 5.87806748,39.0736196 C13.7093558,46.904908 26.4455521,46.904908 34.2768405,39.0736196 C40.8289877,32.5214724 41.8964724,22.5368098 37.4792945,14.8711656 L34.1480061,18.202454 C36.881135,23.9815951 35.868865,31.1134969 31.0927914,35.8895706 C25.0191718,41.9631902 15.1449387,41.9631902 9.07131902,35.8895706 C2.99769939,29.8159509 2.99769939,19.9417178 9.07131902,13.8680982 C14.6480061,8.29141104 23.4363497,7.8404908 29.5375767,12.5153374 L26.6019939,15.4509202 C22.1203988,12.3496933 15.9363497,12.791411 11.9608896,16.7668712 C7.48849693,21.2392638 7.48849693,28.5092025 11.9608896,32.9815951 C16.4332822,37.4539877 23.7032209,37.4539877 28.1756135,32.9815951 C31.3136503,29.8435583 32.2430982,25.3251534 30.9731595,21.3588957 L26.9976994,25.3343558 C26.8872699,26.9631902 26.2246933,28.5552147 24.982362,29.797546 C22.267638,32.5122699 17.8504601,32.5122699 15.1357362,29.797546 C12.4210123,27.0828221 12.4210123,22.6656442 15.1357362,19.9509202 C17.3443252,17.7423313 20.6756135,17.3282209 23.3075153,18.7177914 L20.1510736,21.8742331 C19.3504601,21.8466258 18.5406442,22.1411043 17.9332822,22.7484663 C16.7645706,23.9171779 16.7645706,25.8220859 17.9332822,27 C19.1019939,28.1779141 21.0069018,28.1687117 22.184816,27 C22.7921779,26.392638 23.0866564,25.5828221 23.0590491,24.7822086 L26.2154908,21.6257669 L29.5007669,18.3496933 Z" id="Shape"></path>
                </g>
            </g>
        </g>
    </g>
</svg>