<svg id="圖層_1" data-name="圖層 1" xmlns="http://www.w3.org/2000/svg" viewBox="0 0 229.65 97.08"><defs><style>.cls-1{fill:#1a6032;}.cls-2{fill:#c1dba6;}.cls-3{fill:#69b031;}.cls-4{fill:#7ab63f;}</style></defs><title>logo-ht</title><path class="cls-1" d="M91.62,54.34v4.54a2.85,2.85,0,0,0,.24,1.54c.11.17.57.32,1.38.33h.17v.62H87.81v-.62H88a2.21,2.21,0,0,0,1.42-.33,3.62,3.62,0,0,0,.19-1.54V49.56A3.62,3.62,0,0,0,89.4,48,2.26,2.26,0,0,0,88,47.69l-.17,0v-.6H93.4v.6l-.17,0c-.81,0-1.27.16-1.38.32a2.85,2.85,0,0,0-.24,1.55v4h6.81v-4A2.83,2.83,0,0,0,98.18,48a2.11,2.11,0,0,0-1.38-.32l-.17,0v-.6h5.59v.6l-.19,0a2.31,2.31,0,0,0-1.41.32,3.94,3.94,0,0,0-.18,1.55v9.33a3.94,3.94,0,0,0,.18,1.54,2.26,2.26,0,0,0,1.41.33h.19v.62H96.64v-.62h.17a2.07,2.07,0,0,0,1.38-.33,2.8,2.8,0,0,0,.24-1.54V54.34Z"/><path class="cls-1" d="M104.26,65.2l3.41-3.81-3.31-8a7.07,7.07,0,0,0-.74-1.58.9.9,0,0,0-.8-.33h-.17v-.62h4.78v.62h-.21c-.85,0-1.32.1-1.32.34,0,.09.23.65.56,1.58l2.35,5.65,2.51-5.68a7.76,7.76,0,0,0,.56-1.49c0-.29-.4-.4-1.2-.4h-.25v-.62h3.09v.62h-.17c-.4,0-.73.37-1,1.07-.05.15-.21.4-.38.81L106.62,65.2Z"/><path class="cls-1" d="M116.26,61c-.73-.33-1.13-.81-1.13-1.38a1.4,1.4,0,0,1,.48-1,4.65,4.65,0,0,1,1.37-1,3.71,3.71,0,0,1-1.61-1.31,3.89,3.89,0,0,1-.5-2,3.46,3.46,0,0,1,1.06-2.7,4,4,0,0,1,2.85-1,5,5,0,0,1,2,.41l3.65-.29L124,51.91l-2.52-.41a3.84,3.84,0,0,1,1.27,2.81,3.57,3.57,0,0,1-1.1,2.68,3.87,3.87,0,0,1-2.76,1.07,4.62,4.62,0,0,1-1.37-.23,2.77,2.77,0,0,0-.5.56,1.45,1.45,0,0,0-.16.65c0,.42.41.66,1.22.66h1.63a7.12,7.12,0,0,1,3.32.52,1.91,1.91,0,0,1,.9,1.89,2.71,2.71,0,0,1-1.37,2.42,6.41,6.41,0,0,1-3.58.92,8.35,8.35,0,0,1-3.48-.64c-.89-.4-1.3-.95-1.3-1.63a1.91,1.91,0,0,1,.5-1.22,5.3,5.3,0,0,1,1.61-1m.49.16a3.49,3.49,0,0,0-.56.74,3.46,3.46,0,0,0-.17,1,1.74,1.74,0,0,0,.73,1.52,4.09,4.09,0,0,0,2.25.49,3.7,3.7,0,0,0,2.2-.63,2,2,0,0,0,.88-1.69,1.34,1.34,0,0,0-.55-1.07,2.49,2.49,0,0,0-1.47-.33Zm0-6.89a4.44,4.44,0,0,0,.49,2.36,1.73,1.73,0,0,0,1.54.82,1.65,1.65,0,0,0,1.53-.79,4.55,4.55,0,0,0,.5-2.38c0-2-.66-3.07-2-3.07a1.86,1.86,0,0,0-1.54.8,4.13,4.13,0,0,0-.49,2.27"/><path class="cls-1" d="M134.24,60.91a9.16,9.16,0,0,1-3.31.72,5,5,0,0,1-3.74-1.55A5.76,5.76,0,0,1,125.74,56,5.54,5.54,0,0,1,127,52.15a4.05,4.05,0,0,1,3.32-1.53,3.31,3.31,0,0,1,2.85,1.29,5.37,5.37,0,0,1,1,3.58v.2h-6.4a6.47,6.47,0,0,0,.83,3.69,2.86,2.86,0,0,0,2.57,1.29,6,6,0,0,0,3-.73Zm-6.38-5.83h4.36v-.41a5.65,5.65,0,0,0-.48-2.67,1.71,1.71,0,0,0-1.54-.8,2,2,0,0,0-1.7,1.06,5.7,5.7,0,0,0-.64,2.82"/><path class="cls-1" d="M139.28,50.86v8a2.81,2.81,0,0,0,.24,1.54c.09.17.57.32,1.38.33l.17,0v.62h-5.44v-.62l.17,0a2.23,2.23,0,0,0,1.38-.33,2.91,2.91,0,0,0,.24-1.54V53.36a2.87,2.87,0,0,0-.24-1.54,2.29,2.29,0,0,0-1.38-.34l-.17,0v-.6Zm-1.87-3.81h1.87V49H137.4Z"/><path class="cls-1" d="M148.75,59.93a4.89,4.89,0,0,1-3.39,1.7,3,3,0,0,1-2.2-.87,2.67,2.67,0,0,1-.89-2.12,3.09,3.09,0,0,1,1.14-2.42c.89-.72,2.36-1.06,4.46-1.06h.4V53.86c0-1.69-.64-2.51-1.87-2.51a2.16,2.16,0,0,0-1.54.57,1.81,1.81,0,0,0-.49,1.33l0,.2h-1.26V51.5a9.3,9.3,0,0,1,3.69-.88c2.3,0,3.44,1,3.44,3.16v4.69a6.58,6.58,0,0,0,.18,1.78.8.8,0,0,0,.8.5,1.64,1.64,0,0,0,.49-.08l.06.72a3.9,3.9,0,0,1-1.24.24c-.93,0-1.51-.56-1.75-1.7m-.48-.23v-4h-.42a4.34,4.34,0,0,0-2.66.72,2.35,2.35,0,0,0-.91,1.94,1.93,1.93,0,0,0,.57,1.48,2,2,0,0,0,1.46.65,3.37,3.37,0,0,0,1.95-.81"/><path class="cls-1" d="M157.52,47.83h-2.27a8,8,0,0,0-1.38.1c-.25,0-.4.25-.4.66s0,.64,0,.89v.17h-1v-2.6h12.24v2.6h-1v-.17a6.53,6.53,0,0,1-.06-.89c0-.41-.1-.65-.35-.66a8.15,8.15,0,0,0-1.43-.1h-2.27V58.88a2.83,2.83,0,0,0,.24,1.54,2.21,2.21,0,0,0,1.38.33l.41,0v.62h-6v-.62l.43,0a2,2,0,0,0,1.36-.33,3.2,3.2,0,0,0,.21-1.54Z"/><path class="cls-1" d="M171,61.63a4.69,4.69,0,0,1-3.65-1.46,5.92,5.92,0,0,1-1.37-4,5.79,5.79,0,0,1,1.37-4,5.27,5.27,0,0,1,7.3,0,5.79,5.79,0,0,1,1.34,4,5.9,5.9,0,0,1-1.34,4A4.69,4.69,0,0,1,171,61.63m0-.61a2.4,2.4,0,0,0,2.11-1.4,7.41,7.41,0,0,0,0-7A2.45,2.45,0,0,0,171,51.19a2.41,2.41,0,0,0-2.11,1.44,6.57,6.57,0,0,0-.88,3.49,6.64,6.64,0,0,0,.86,3.49A2.37,2.37,0,0,0,171,61"/><path class="cls-1" d="M185.42,61.39v-2a5.34,5.34,0,0,1-1.65,1.67,4.09,4.09,0,0,1-2.11.56,2.67,2.67,0,0,1-2.11-.89,3.68,3.68,0,0,1-.8-2.47v-4.9a3.52,3.52,0,0,0-.19-1.54,2.26,2.26,0,0,0-1.4-.34l-.2,0v-.6h3.7V58a2.93,2.93,0,0,0,.43,1.79,1.5,1.5,0,0,0,1.29.64,3.39,3.39,0,0,0,1.55-.42,7.59,7.59,0,0,0,1.49-1.2V53.36a4.53,4.53,0,0,0-.2-1.62,2.69,2.69,0,0,0-1.4-.26l-.19,0v-.6h3.7v8a4.16,4.16,0,0,0,.21,1.62,3.38,3.38,0,0,0,1.38.25h.19v.62Z"/><path class="cls-1" d="M198.52,61a8.12,8.12,0,0,1-3,.63,4.84,4.84,0,0,1-3.71-1.54,6.36,6.36,0,0,1-.07-8,4.67,4.67,0,0,1,3.65-1.49,13.3,13.3,0,0,1,3.07.48v2.52h-1.21v-.17c0-1.45-.64-2.18-1.9-2.18a2.43,2.43,0,0,0-2.18,1.26,6.23,6.23,0,0,0-.82,3.41,5.53,5.53,0,0,0,1,3.47A3.11,3.11,0,0,0,196,60.67a6.15,6.15,0,0,0,2.52-.49Z"/><path class="cls-1" d="M203.55,52.81a5.15,5.15,0,0,1,1.67-1.63,3.89,3.89,0,0,1,2.11-.56,2.76,2.76,0,0,1,2.13.89,3.67,3.67,0,0,1,.74,2.44v4.93a4.82,4.82,0,0,0,.24,1.62,3.26,3.26,0,0,0,1.38.25H212v.62h-5.45v-.62h.17a3.25,3.25,0,0,0,1.38-.25,5.13,5.13,0,0,0,.22-1.62V54.26a3.54,3.54,0,0,0-.35-1.87,1.32,1.32,0,0,0-1.25-.56,3.54,3.54,0,0,0-1.44.42,10.57,10.57,0,0,0-1.72,1.2v5.43a3.19,3.19,0,0,0,.21,1.54,2.14,2.14,0,0,0,1.4.33h.17v.62h-5.46v-.62h.19a2.18,2.18,0,0,0,1.38-.33,3,3,0,0,0,.21-1.54V48.59c0-.89-.06-1.38-.21-1.54a2.16,2.16,0,0,0-1.38-.33l-.19,0v-.61h3.68Z"/><polygon class="cls-2" points="34.47 51.1 33.25 33.43 52.31 28.96 53.73 46.47 34.47 51.1"/><polygon class="cls-3" points="32.74 29.78 31.52 12.04 50.6 7.58 51.99 25.09 32.74 29.78"/><polygon class="cls-3" points="9.94 34.98 8.71 17.29 27.79 12.84 29.2 30.35 9.94 34.98"/><polygon class="cls-3" points="11.46 56.44 10.23 38.7 29.29 34.24 30.71 51.74 11.46 56.44"/><polygon class="cls-3" points="56.7 46.08 55.48 28.4 74.58 23.9 75.97 41.41 56.7 46.08"/><polygon class="cls-3" points="36.03 72.66 34.81 54.91 53.89 50.46 55.3 67.96 36.03 72.66"/><polygon class="cls-3" points="58.14 67.51 56.93 49.8 75.99 45.35 77.43 62.85 58.14 67.51"/><polygon class="cls-2" points="2.24 94.1 0 67.4 26.69 60.99 28.48 87.91 2.24 94.1"/><polygon class="cls-2" points="58.71 18.68 57.66 3.44 72.66 0 73.79 15.12 58.71 18.68"/><path class="cls-4" d="M128.45,65.31V67.7A1.71,1.71,0,0,1,130,67a2.31,2.31,0,0,1,1,.21,1.25,1.25,0,0,1,.57.56,2.65,2.65,0,0,1,.17,1V72H130V69.22c0-.32,0-.56,0-.72a2.33,2.33,0,0,0-.24-.31.61.61,0,0,0-.4-.11,1.27,1.27,0,0,0-.64.22c-.18.11-.29.44-.29.92V72H126.8V65.31Z"/><path class="cls-4" d="M138.3,69.78h-3.72c0,.08,0,.17,0,.23a1.09,1.09,0,0,0,.32.79,1.22,1.22,0,0,0,.81.28.87.87,0,0,0,1-.8l1.55.09a2.51,2.51,0,0,1-2.6,1.76,3.63,3.63,0,0,1-1.46-.31,2.47,2.47,0,0,1-1-.89,2.58,2.58,0,0,1,.4-3.25,2.82,2.82,0,0,1,2-.72,2.89,2.89,0,0,1,1.87.65,2.67,2.67,0,0,1,.81,2.18m-3.72-.87h2c0-.66-.34-1-1-1a1,1,0,0,0-1.07,1"/><path class="cls-4" d="M144.38,72h-1.66a3.42,3.42,0,0,1-.07-.75,2.87,2.87,0,0,1-.87.7,2.58,2.58,0,0,1-1,.19,2,2,0,0,1-1.3-.39,1.22,1.22,0,0,1-.49-1,1.5,1.5,0,0,1,.26-.85,2.19,2.19,0,0,1,1-.64,10.16,10.16,0,0,1,2.35-.32v-.28c0-.46-.32-.72-.88-.72a.85.85,0,0,0-1,.72l-1.54-.12a1.55,1.55,0,0,1,.9-1.22,4.35,4.35,0,0,1,1.78-.33,4.65,4.65,0,0,1,1.07.09,1.56,1.56,0,0,1,.81.39.88.88,0,0,1,.4.49,2.4,2.4,0,0,1,.13.91v2.26a2.59,2.59,0,0,0,.1.91m-1.79-2.37c-1.21.09-1.79.41-1.79.91A.65.65,0,0,0,141,71a.78.78,0,0,0,.55.17,1,1,0,0,0,.75-.32,1.11,1.11,0,0,0,.32-.76Z"/><rect class="cls-4" x="145.67" y="65.28" width="1.69" height="6.71"/><path class="cls-4" d="M150.63,68.17v2.11a.77.77,0,0,0,.15.52c.08.11.32.13.65.13H152V72a9.75,9.75,0,0,1-1.09.14,2.29,2.29,0,0,1-1.47-.39,1.39,1.39,0,0,1-.46-1.22V68.17H148V67h1l.1-1.46,1.46-.08V67h1.26v1.13Z"/><path class="cls-4" d="M154.47,65.31V67.7A1.71,1.71,0,0,1,156,67a2.33,2.33,0,0,1,1,.21,1.3,1.3,0,0,1,.57.56,2.68,2.68,0,0,1,.16,1V72h-1.7V69.22q0-.49,0-.72a1.84,1.84,0,0,0-.23-.31.63.63,0,0,0-.41-.11,1.25,1.25,0,0,0-.64.22,1.12,1.12,0,0,0-.3.92V72h-1.65V65.31Z"/><path class="cls-4" d="M167.06,72h-1.69V69.22a3.06,3.06,0,0,0-.07-.72.47.47,0,0,0-.21-.29.65.65,0,0,0-.44-.13c-.57,0-.89.38-.89,1.14V72h-1.7V67h1.58v.84a2.07,2.07,0,0,1,.77-.77,2,2,0,0,1,.82-.16,2.11,2.11,0,0,1,1.32.36,1.84,1.84,0,0,1,.52,1.51Z"/><path class="cls-4" d="M173.58,69.78h-3.67V70a.92.92,0,0,0,.32.79,1.12,1.12,0,0,0,.76.28.92.92,0,0,0,1-.8l1.54.09a2.52,2.52,0,0,1-2.6,1.76,3.65,3.65,0,0,1-1.46-.31,2.59,2.59,0,0,1-1-.89,2.17,2.17,0,0,1-.39-1.36,2.51,2.51,0,0,1,.76-1.89,2.86,2.86,0,0,1,2-.72,3.07,3.07,0,0,1,1.92.65,2.81,2.81,0,0,1,.78,2.18m-3.67-.87h2c-.06-.66-.4-1-1-1a1,1,0,0,0-1.06,1"/><polygon class="cls-4" points="182.15 67.05 180.41 71.99 178.91 71.99 178.01 68.82 177.11 71.99 175.67 71.99 173.9 67.05 175.66 67.05 176.62 70.07 177.49 67.05 178.99 67.05 179.88 70.12 180.85 67.05 182.15 67.05"/><path class="cls-4" d="M187.52,66.63h-1.68V65.18h1.68Zm0,5.36h-1.68V67h1.68Z"/><path class="cls-4" d="M193.9,72h-1.7V69.22a4.58,4.58,0,0,0,0-.72,1,1,0,0,0-.22-.29.67.67,0,0,0-.46-.13c-.59,0-.89.38-.89,1.14V72h-1.68V67h1.57v.84a1.86,1.86,0,0,1,.76-.77,2.06,2.06,0,0,1,.84-.16,2.13,2.13,0,0,1,1.31.36,1.91,1.91,0,0,1,.49,1.51Z"/><path class="cls-4" d="M197,66.63H195.3V65.18H197ZM197,72H195.3V67H197Z"/><path class="cls-4" d="M200.3,68.17v2.11a.72.72,0,0,0,.13.52c.1.11.29.13.62.13h.55V72a9.15,9.15,0,0,1-1.06.14,2.35,2.35,0,0,1-1.51-.39,1.48,1.48,0,0,1-.43-1.22V68.17h-.89V67h1l.16-1.46,1.46-.08V67h1.22v1.13Z"/><path class="cls-4" d="M204.17,66.63h-1.69V65.18h1.69Zm0,5.36h-1.69V67h1.69Z"/><path class="cls-4" d="M210.56,72h-1.65a2.87,2.87,0,0,1-.08-.75,2.45,2.45,0,0,1-.83.7,2.6,2.6,0,0,1-1,.19,2.13,2.13,0,0,1-1.31-.39,1.19,1.19,0,0,1-.5-1,1.41,1.41,0,0,1,.28-.85,2,2,0,0,1,.94-.64,10.24,10.24,0,0,1,2.33-.32v-.28c0-.46-.26-.72-.83-.72s-.91.26-1,.72l-1.57-.12a1.6,1.6,0,0,1,.93-1.22,4.09,4.09,0,0,1,1.75-.33,5,5,0,0,1,1.1.09,1.71,1.71,0,0,1,.81.39,1.05,1.05,0,0,1,.4.49,2.53,2.53,0,0,1,.1.91v2.26a2.9,2.9,0,0,0,.11.91m-1.8-2.37c-1.16.09-1.76.41-1.76.91a.56.56,0,0,0,.2.47.64.64,0,0,0,.51.17.94.94,0,0,0,.76-.32,1,1,0,0,0,.29-.76Z"/><path class="cls-4" d="M213.76,68.17v2.11a.76.76,0,0,0,.13.52c.1.11.3.13.64.13h.53V72a9.55,9.55,0,0,1-1.07.14,2.23,2.23,0,0,1-1.49-.39,1.44,1.44,0,0,1-.46-1.22V68.17h-.9V67h1l.14-1.46,1.46-.08V67H215v1.13Z"/><path class="cls-4" d="M217.65,66.63h-1.7V65.18h1.7Zm0,5.36h-1.7V67h1.7Z"/><polygon class="cls-4" points="223.54 67.05 221.56 71.99 220.26 71.99 218.3 67.05 220.04 67.05 221.15 70.2 222.28 67.05 223.54 67.05"/><path class="cls-4" d="M229.28,69.78h-3.68c0,.08,0,.17,0,.23a1,1,0,0,0,.32.79,1.14,1.14,0,0,0,.78.28.9.9,0,0,0,1-.8l1.54.09a2.53,2.53,0,0,1-2.6,1.76,3.53,3.53,0,0,1-1.45-.31,2.63,2.63,0,0,1-1-.89,2.33,2.33,0,0,1-.38-1.36,2.47,2.47,0,0,1,.78-1.89,2.83,2.83,0,0,1,2-.72,3,3,0,0,1,1.91.65,2.76,2.76,0,0,1,.79,2.18m-3.68-.87h2c0-.66-.38-1-1-1a1,1,0,0,0-1.06,1"/><path class="cls-1" d="M48.86,75.95l1.26.48c0,.14-.89,2-1.2,2.68v8.75H47.65V81.35q-.4.63-.88,1.3l-1-.84a18.34,18.34,0,0,0,1.77-2.72A22.49,22.49,0,0,0,48.86,75.95Zm3.73,1.37s.76.77.56.88l-1.56,2.55h1.8a18,18,0,0,1-.49,3.82,6.09,6.09,0,0,1-.37.93,5,5,0,0,0,1.64.94,25,25,0,0,0,5.24.25q.7,0,1.77,0V87.7c-2.22,0-4.49.13-5.78,0A7.23,7.23,0,0,1,53,87.14a4.07,4.07,0,0,1-1.06-.7l-.1.1A7.74,7.74,0,0,1,50.2,87.8l-.89-.8a4.8,4.8,0,0,0,1.31-.91,4.19,4.19,0,0,0,.38-.44,8.86,8.86,0,0,1-1.4-2.27l1.08-.32a15.38,15.38,0,0,0,.93,1.51,11.06,11.06,0,0,0,.51-2.8l-1.17,0-1.37,0,2-3.45H50v-1h1.87A2.61,2.61,0,0,1,52.6,77.31ZM54,77.08H56V76l1.35,0c0,.25,0,1.06,0,1.06h2.68v1.86h.86v.93h-.86v1.86H57.38v.85h2.71v.88H57.38v.88h3.09v1H57.38l0,1.17H56.06l0-1.17H53.52v-1H56v-.88H54v-.88H56v-.85H54v-.93H56v-.93H53.33v-.93H56V78H54Zm3.41.93v.93h1.34V78Zm0,1.86v.93h1.34v-.93Z"/><path class="cls-1" d="M70.32,76l1.56,0c0,.12.06.84.06.84h5.53v1.08H72.06l0,0v.75h3.8v1.68h1.91v1H75.81v1.73l-3.64,0a26.76,26.76,0,0,0,5.61,3.64l-1.42.9A13.35,13.35,0,0,1,73.52,86,8.89,8.89,0,0,1,72,84.65v1.62a1.41,1.41,0,0,1-.51,1.2,7,7,0,0,1-2.83.39l.05-1.22h1.16a.59.59,0,0,0,.65-.62v-.35a42.29,42.29,0,0,1-4.9,1.75l-.37-1.19a27.91,27.91,0,0,0,5.26-1.58V83.14H66.81v-1h3.73v-.75H65.6v.16a17.73,17.73,0,0,1-.3,3.44,18.17,18.17,0,0,1-.85,2.85L63,87.29a12.26,12.26,0,0,0,.83-2.57,16.36,16.36,0,0,0,.32-3.16V76.85l6.18,0Zm.22,2.71v-.77H65.6v2.45h4.95v-.7H66.81v-1ZM66.9,83.85a21.15,21.15,0,0,1,2.91,1.26l-1.19.65a21.91,21.91,0,0,0-2.68-1.15ZM72,79.68v.7H74.4v-.7Zm0,1.73v.75H74.4v-.75Z"/><path class="cls-1" d="M85.92,78.68l1.08.44c.16.07-1,1.57-1,1.57h2.28v1H85.1v1.13h2.78v1H85.5a8.22,8.22,0,0,0,2.31,1.77l-1,.86A11.41,11.41,0,0,1,85.1,84.9v3H83.76V85q-.29.41-.57.77a10.65,10.65,0,0,1-1.56,1.61l-1.4-.77a10.21,10.21,0,0,0,1.87-1.37,12.6,12.6,0,0,0,1.21-1.37H80.86v-1h2.9V81.72H80.41v-1h5.39l-1.35.2ZM83.67,76h1.41c0,.07,0,1.44,0,1.44h2.74v1h-7v-1h2.87Zm-.86,2.73a5.9,5.9,0,0,1,.75,1.58l-1.33.16A7.57,7.57,0,0,0,81.5,79Zm7.36-.55,0,1.91h4.56v1.08H93.34v6.52H92V81.23H90.15v.39q0,1.66-.1,2.68a7.47,7.47,0,0,1-.61,2.2,6.74,6.74,0,0,1-.85,1.41l-1.23-.67a8.75,8.75,0,0,0,.61-.85,5,5,0,0,0,.59-1.48,16.76,16.76,0,0,0,.24-3.29V77.13s4.19-.82,5.18-1l.11,1.16S91.4,78,90.17,78.24Z"/><path class="cls-1" d="M97.88,76.31h5.3v3.35h.77v2.27h-1l0,5.58c-.44.44-1.95.25-2.37.25l.1-1,.75.06c.27,0,.28-.31.28-.58v-.34H99.32v1.83H98V81.93H96.92V79.66h1Zm.8,5.05h4.05v-.77H98.14v.77Zm.41-1.7h1V78H102v-.75H99.09Zm.22,3.53h2.36v-.9H99.32Zm0,1.86h2.36v-1H99.32Zm1.79-5.39H102v-.9h-.86ZM106.44,85a9.21,9.21,0,0,1,.78,1.63h1.63l.69-1.67,1,.09a13.62,13.62,0,0,1-.81,1.59h2.42v.88h-8.29v-.88h2.28a15.5,15.5,0,0,0-.87-1.55Zm-2.27-3.53h7.72v.88h-7.72Zm.29-4.36h2V76h1.13c0,.17,0,1.13,0,1.13h.7V76h1.14c0,.13,0,1.15,0,1.15h2V81h-7Zm.38,5.78h6.32v2.27h-6.32Zm.83-4.2h.8V78h-.8Zm.8,1.52v-.75h-.8v.75Zm3.48,4.23v-.83H106v.83ZM107.61,78v.75h.7V78Zm.7,2.27v-.75h-.7v.75ZM109.46,78v.75h.8V78Zm.8,2.27v-.75h-.8v.75Z"/><path class="cls-1" d="M113.94,84.3l.89,0c0,.88,0,2.28.08,3h-1.19C113.8,86.64,113.92,85.18,113.94,84.3Zm6.64-8v1h-2.11v1.11h1.72v.93h-1.72v1h1.72v.93h-1.72v1.06h2.2a20.26,20.26,0,0,1-.24,4.09,1.59,1.59,0,0,1-.62,1.13,9.91,9.91,0,0,1-2.81.31l0-1.12a6.18,6.18,0,0,0,1.84-.18,1.12,1.12,0,0,0,.33-.66,2.19,2.19,0,0,0,.08-.41l-.8.17a4.84,4.84,0,0,0-.72-1.59l.73-.17a5.19,5.19,0,0,1,.8,1.42q.08-.7.1-2h-4.95v-7ZM116,84.2a16.54,16.54,0,0,1,.7,2.62l-1,.33a21.69,21.69,0,0,0-.51-2.75Zm1.2-5.83V77.26h-1.53v1.11Zm0,2v-1h-1.53v1Zm-1.53,2h1.53V81.26h-1.53ZM117.28,84a8.68,8.68,0,0,1,.77,2.05l-1,.28a11.24,11.24,0,0,0-.63-2.14Zm7.29-8.2,1.1.32c.14.05-.08.3-.12.34a8.26,8.26,0,0,0,1.73,1.09,12.22,12.22,0,0,0,1.91.57l-.94,1a12.86,12.86,0,0,1-2.14-.94,7.65,7.65,0,0,1-1.4-1,14.78,14.78,0,0,1-3.46,2l-.93-.88A10.79,10.79,0,0,0,124.57,75.84Zm-2.42,8.46,1.32.19c.11.07.1.1-.11.42a4.15,4.15,0,0,0-.23.49,7.06,7.06,0,0,0,1.53,1.07l-1,.72a7.36,7.36,0,0,1-.94-.81l0,.08a6.62,6.62,0,0,1-1.23,1.35l-1-.71a5,5,0,0,0,1.18-1.3A5.37,5.37,0,0,0,122.14,84.3Zm-1-3.63h3.51v3.15h-3.51Zm2.3,2.27V81.54h-1.08v1.39Zm-1.05-4h4.91v.93h-4.91Zm4,5.41,1.26.19c.14,0,0,.2-.1.45a4.62,4.62,0,0,1-.32.58,4.92,4.92,0,0,0,.91.83,3.48,3.48,0,0,0,1.05.5l-1,.9A6.4,6.4,0,0,1,127.1,87q-.24-.23-.48-.52a.15.15,0,0,1-.06.06A7,7,0,0,1,124.95,88l-1-.67a6,6,0,0,0,1.59-1.39A4.94,4.94,0,0,0,126.32,84.3Zm-1.05-3.63h3.51v3.15h-3.51Zm2.3,2.27V81.54h-1.09v1.39Z"/><path class="cls-1" d="M132.11,77.44v-1h4.53V86.53q0,.81-1,1a7.74,7.74,0,0,1-1.67.16l-.27-1.08,1.07,0q.48,0,.48-.45V83.42h-1.91q-.08.8-.19,1.56a11.23,11.23,0,0,1-.8,2.77L131,87.27a9,9,0,0,0,.81-2.49,15.3,15.3,0,0,0,.29-3.11Zm1.32,5h1.87v-2h-1.85v1.29C133.45,81.91,133.45,82.15,133.44,82.39Zm0-3h1.85V77.44h-1.85Zm5.33-1.91v-1h4.66V79q0,.62.18.62h.86a.25.25,0,0,0,.21-.1,4.9,4.9,0,0,0,.15-.94l1,0c-.11.87-.09,1.56-.36,1.74a2.38,2.38,0,0,1-1.28.28h-.72q-1.45,0-1.45-1.38V77.44h-1.85v.83a2.76,2.76,0,0,1-.41,1.46A4,4,0,0,1,138.45,81l-1.23-.7a2.59,2.59,0,0,0,1.12-.86,1.69,1.69,0,0,0,.45-1.17Zm-.93,3.9,5.55,0a6.49,6.49,0,0,1,.89,0l.55.55c.08.07,0-.18-.3.55a9.86,9.86,0,0,1-2,3.24,6.86,6.86,0,0,0,.8.4,10.1,10.1,0,0,0,2.52.67l-.89,1.19a15.31,15.31,0,0,1-2.9-1.12l-.57-.36a12.87,12.87,0,0,1-3.35,1.32l-.77-1.11a11.56,11.56,0,0,0,2.14-.59,7.6,7.6,0,0,0,.94-.44l-.33-.34a7.21,7.21,0,0,1-1.32-1.87C138.58,83,137.85,81.34,137.85,81.34Zm1.91,1a3.89,3.89,0,0,0,.38.94,4.9,4.9,0,0,0,1.1,1.44l.14.13.21-.21a7.21,7.21,0,0,0,1.34-2.31Z"/><path class="cls-1" d="M151.87,75.95l1.32.52a17.58,17.58,0,0,1-1.61,2.76v8.64h-1.47v-6.7q-.61.71-1.31,1.44l-1.08-.88A18.61,18.61,0,0,0,150.07,79,18.91,18.91,0,0,0,151.87,75.95Zm2.9,1.5,1.39.39a10.61,10.61,0,0,1-1.47,2.44,9.68,9.68,0,0,1-1.52,1.51l-1.31-.68a8.47,8.47,0,0,0,1.69-1.56A8.21,8.21,0,0,0,154.78,77.44ZM154,81.31h7.49a41.48,41.48,0,0,1-.23,6c-.12.64-3.1.41-4.14.41l.06-1.14c1.08,0,2.66.16,2.77-.27a33.58,33.58,0,0,0,.09-4H157.3a9.52,9.52,0,0,1-.48,2.47,6,6,0,0,1-1.09,1.78,8.72,8.72,0,0,1-2,1.47L152.87,87a3.57,3.57,0,0,0,1.5-1,4.33,4.33,0,0,0,1-1.5,7,7,0,0,0,.46-2.09H154Zm2.23-4.85h3.92a5.46,5.46,0,0,0,1,2.8,11.09,11.09,0,0,0,2.07,1.83l-1.28.74a10.11,10.11,0,0,1-2.35-2.31,4.81,4.81,0,0,1-.81-2h-2.58Z"/><path class="cls-1" d="M165.23,77.7h5.06a8.43,8.43,0,0,0,.73-1.37l1.31.09c.22.05-.33,1-.51,1.28h7.78v1h-8.41a13.67,13.67,0,0,1-1,1.39h7.34v6.5q0,.85-1.05,1.1a15.56,15.56,0,0,1-2.44.12V86.74h1.53c.38,0,.57-.18.57-.48v-.75h-6.19V87.8h-1.4V81.67a13.52,13.52,0,0,1-2.73,1.6l-1-1.15a8.85,8.85,0,0,0,3.62-2.19,8.38,8.38,0,0,0,1.12-1.2h-4.36Zm4.72,4.67h6.19V81.15h-6.19Zm0,2.17h6.19V83.34h-6.19Z"/><path class="cls-1" d="M188.11,77l-1.95,3.4a4,4,0,0,1,1.58,2.68,2.68,2.68,0,0,1-.85,2.08,5.72,5.72,0,0,1-3,.73V84.7a3.92,3.92,0,0,0,2-.59,1.59,1.59,0,0,0,.4-1.17q0-.93-1.61-2.42l1.55-3.13h-2.33V88h-1.4V76.36h4.13C186.76,76.25,188.11,77,188.11,77Zm.41-.61h7.15v5.31h-2.57a8.3,8.3,0,0,0,.77,1.92,16.84,16.84,0,0,0,1.93-1.38l1,.86a24.07,24.07,0,0,1-2.4,1.4,9.53,9.53,0,0,0,2.7,2.38l-1.52.93a18.2,18.2,0,0,1-1.88-1.9,8.94,8.94,0,0,1-1.24-2,10.21,10.21,0,0,1-.75-2.2h-1.82v4.4q1.4-.28,2.74-.67v1a49.4,49.4,0,0,1-5.38,1.34l-.23-1.21q.75-.09,1.47-.21Zm1.4,2.17h4.34V77.36h-4.34Zm0,2.17h4.34V79.53h-4.34Z"/><path class="cls-1" d="M202.58,77.81l1.61.23c.17.05,0,.1-.16.52a10.63,10.63,0,0,1-1.34,2.29,10.29,10.29,0,0,1-2.42,2L199,82.05a8.47,8.47,0,0,0,2.41-2A7,7,0,0,0,202.58,77.81ZM205,80.43l1.48.48c.21.05.17,0-.08.5a45.24,45.24,0,0,1-2.49,4.53q3-.13,5.74-.43a22.39,22.39,0,0,0-1.8-1.93l1.12-.72a24.64,24.64,0,0,1,3.8,4.24l-1.42.76q-.42-.67-.88-1.3s-10.41.92-10.51.95V86.08c.85,0,1.53-.05,2.33-.08q.73-1.16,1.21-2.11A26,26,0,0,0,205,80.43Zm-.85-4h5.42A6.12,6.12,0,0,0,211,79.88a15.54,15.54,0,0,0,2.94,2.24l-1.47.84a13.83,13.83,0,0,1-3.29-2.81A5.62,5.62,0,0,1,208,77.52h-3.89Z"/><path class="cls-1" d="M217.08,76.51h12.57v9.94q0,.93-1.29,1.2a28.87,28.87,0,0,1-3.42.23l-.22-1.22,2.67-.08q.73,0,.73-.54V77.65h-11Zm.77,2.4h8.42V80h-8.42Zm.54,2.42h7.11v4.23h-7.11Zm1.47,3.15h4.24V82.42h-4.24Z"/><path class="cls-1" d="M76.36,83.89c-.69.38-1,.67-1.5.92L74.19,84a8.79,8.79,0,0,0,1.5-.9Z"/></svg>